<svg xmlns="http://www.w3.org/2000/svg" width="390" height="844" viewBox="0 0 390 844">
<defs><style>.t{font-family:Arial,sans-serif;fill:#193238}.m{font-family:Arial,sans-serif;fill:#6D8084}.b{font-weight:700}.x{font-weight:800}</style></defs>
<rect width="390" height="844" rx="34" fill="#F6F8F7"/><text class="t b" x="22" y="23" font-size="11">9:41</text>
<g transform="translate(22 46)"><rect width="42" height="42" rx="14" fill="#197A73"/><circle cx="14" cy="17" r="4" fill="white"/><circle cx="28" cy="17" r="4" fill="white"/><circle cx="21" cy="28" r="7" fill="white"/><circle cx="10" cy="25" r="3" fill="white"/><circle cx="32" cy="25" r="3" fill="white"/><text class="t x" x="52" y="18" font-size="20">PetMate</text><text class="m b" x="52" y="34" font-size="9">VETERINARY CLINIC</text></g>
<circle cx="348" cy="67" r="21" fill="white" stroke="#E3EAE8"/><path d="M348 58c-4 0-6 4-6 8v4l-3 4h18l-3-4v-4c0-4-2-8-6-8zM345 77h6" fill="none" stroke="#193238" stroke-width="1.7"/><circle cx="358" cy="56" r="4" fill="#F28B52"/>
<text x="22" y="120" font-family="Arial" font-size="10" font-weight="800" letter-spacing="1.2" fill="#197A73">FRIDAY, AUGUST 21</text><text class="t x" x="22" y="151" font-size="25">Good afternoon, Mary!</text><text class="m" x="22" y="174" font-size="13">Here’s what’s happening with your pets.</text>
<rect x="20" y="195" width="350" height="211" rx="24" fill="white" stroke="#E3EAE8"/><rect x="36" y="212" width="148" height="27" rx="13.5" fill="#E8F7EF"/><circle cx="50" cy="225.5" r="4" fill="#3C9A72"/><text x="60" y="229" font-family="Arial" font-size="9" font-weight="800" fill="#3C9A72">UPCOMING APPOINTMENT</text>
<circle cx="62" cy="272" r="27" fill="#FFF1E8"/><path d="M48 270q0-18 14-18t14 18v10q0 14-14 14t-14-14z" fill="#D39A74"/><circle cx="56" cy="274" r="2.4" fill="#193238"/><circle cx="68" cy="274" r="2.4" fill="#193238"/><path d="M58 283q4 4 8 0" stroke="#193238" stroke-width="2" fill="none"/><text class="t x" x="101" y="267" font-size="16">Mochi’s Wellness Exam</text><text class="m" x="101" y="288" font-size="12">with Dr. Sofia Reyes</text>
<line x1="36" y1="315" x2="354" y2="315" stroke="#E3EAE8"/><g class="t b" font-size="11"><circle cx="48" cy="339" r="9" fill="#E7F6F2"/><text x="43" y="343" fill="#197A73">24</text><text x="64" y="343">Aug 24</text><circle cx="151" cy="339" r="9" fill="#E7F6F2"/><path d="M151 334v5l4 2" stroke="#197A73" fill="none"/><text x="167" y="343">10:30 AM</text><circle cx="274" cy="339" r="9" fill="#E7F6F2"/><text x="290" y="343">Main Clinic</text></g><line x1="36" y1="361" x2="354" y2="361" stroke="#E3EAE8"/><text x="36" y="388" font-family="Arial" font-size="12" font-weight="800" fill="#197A73">View appointment</text><path d="M338 384h12m-4-4 4 4-4 4" stroke="#197A73" stroke-width="1.7" fill="none"/>
<text class="t x" x="20" y="447" font-size="18">Quick actions</text>
<g class="t b" font-size="11"><rect x="20" y="463" width="169" height="68" rx="18" fill="white" stroke="#E3EAE8"/><rect x="32" y="476" width="42" height="42" rx="13" fill="#E7F6F2"/><rect x="45" y="487" width="16" height="17" rx="2" fill="none" stroke="#197A73" stroke-width="1.7"/><path d="M49 483v8M57 483v8M49 496h8" stroke="#197A73"/><text x="84" y="502">Book visit</text><rect x="201" y="463" width="169" height="68" rx="18" fill="white" stroke="#E3EAE8"/><rect x="213" y="476" width="42" height="42" rx="13" fill="#FFF1E8"/><path d="M226 489l16 16M230 485l16 16M225 495l9-9M237 507l9-9" stroke="#F28B52" stroke-width="2"/><text x="265" y="502">Vaccines</text>
<rect x="20" y="541" width="169" height="68" rx="18" fill="white" stroke="#E3EAE8"/><rect x="32" y="554" width="42" height="42" rx="13" fill="#F0EDFF"/><rect x="45" y="564" width="16" height="21" rx="2" fill="none" stroke="#7A6CC9" stroke-width="1.7"/><path d="M49 571h8M49 576h8M49 581h6" stroke="#7A6CC9"/><text x="84" y="580">Records</text><rect x="201" y="541" width="169" height="68" rx="18" fill="white" stroke="#E3EAE8"/><rect x="213" y="554" width="42" height="42" rx="13" fill="#EAF3FC"/><rect x="224" y="566" width="20" height="15" rx="3" fill="none" stroke="#4B87C5" stroke-width="1.7"/><path d="M224 571h20" stroke="#4B87C5"/><text x="265" y="580">Payments</text></g>
<text class="t x" x="20" y="645" font-size="18">Health overview</text><rect x="20" y="662" width="350" height="80" rx="20" fill="#FFF1E8"/><circle cx="57" cy="702" r="22" fill="white"/><path d="M48 704l6 6 13-17" stroke="#F28B52" stroke-width="3" fill="none"/><text x="92" y="691" font-family="Arial" font-size="9" font-weight="800" fill="#F28B52">VACCINE REMINDER</text><text class="t x" x="92" y="713" font-size="14">Luna’s FVRCP booster</text><text class="m" x="92" y="730" font-size="10">Due in 12 days • September 2</text>
<rect y="770" width="390" height="74" fill="white"/><line y1="770" x2="390" y2="770" stroke="#E3EAE8"/><g font-family="Arial" font-size="9" font-weight="700" text-anchor="middle"><rect x="20" y="779" width="48" height="31" rx="14" fill="#E7F6F2"/><text x="44" y="800" font-size="18" fill="#197A73">●</text><text x="44" y="827" fill="#197A73">Home</text><text x="121" y="800" font-size="18" fill="#809093">□</text><text x="121" y="827" fill="#809093">Visits</text><text x="195" y="800" font-size="18" fill="#809093">●</text><text x="195" y="827" fill="#809093">Pets</text><text x="269" y="800" font-size="18" fill="#809093">▤</text><text x="269" y="827" fill="#809093">Records</text><text x="351" y="800" font-size="18" fill="#809093">•••</text><text x="351" y="827" fill="#809093">More</text></g>
</svg>
